HIERARCHY
ROOT Hips
{
	OFFSET 0.000000 0.000000 0.000000
	CHANNELS 6 Xposition Yposition Zposition Yrotation Xrotation Zrotation
	JOINT Chest
	{
		OFFSET 0.000000 -0.009281 11.569106
		CHANNELS 3 Yrotation Xrotation Zrotation
		JOINT Chest2
		{
			OFFSET -0.000000 0.016865 9.269641
			CHANNELS 3 Yrotation Xrotation Zrotation
			JOINT Chest3
			{
				OFFSET -0.000000 0.000001 8.374491
				CHANNELS 3 Yrotation Xrotation Zrotation
				JOINT Chest4
				{
					OFFSET -0.000000 0.000001 8.374493
					CHANNELS 3 Yrotation Xrotation Zrotation
					JOINT Neck
					{
						OFFSET -0.000000 0.000002 12.152554
						CHANNELS 3 Yrotation Xrotation Zrotation
						JOINT Head
						{
							OFFSET -0.000000 0.040101 7.802319
							CHANNELS 3 Yrotation Xrotation Zrotation
							End Site
							{
								OFFSET -0.000000 0.020947 14.853096
							}
						}
					}
					JOINT RightCollar
					{
						OFFSET 2.894404 0.000001 6.791374
						CHANNELS 3 Yrotation Xrotation Zrotation
						JOINT RightShoulder
						{
							OFFSET 13.574684 0.000001 0.000000
							CHANNELS 3 Yrotation Xrotation Zrotation
							JOINT RightElbow
							{
								OFFSET 23.923903 0.000002 0.000000
								CHANNELS 3 Yrotation Xrotation Zrotation
								JOINT RightWrist
								{
									OFFSET 19.846718 0.012767 0.000000
									CHANNELS 3 Yrotation Xrotation Zrotation
									End Site
									{
										OFFSET 14.973145 0.000001 0.000000
									}
								}
							}
						}
					}
					JOINT LeftCollar
					{
						OFFSET -2.894404 0.000001 6.791374
						CHANNELS 3 Yrotation Xrotation Zrotation
						JOINT LeftShoulder
						{
							OFFSET -13.574684 -0.000001 0.000000
							CHANNELS 3 Yrotation Xrotation Zrotation
							JOINT LeftElbow
							{
								OFFSET -23.923903 -0.000002 0.000000
								CHANNELS 3 Yrotation Xrotation Zrotation
								JOINT LeftWrist
								{
									OFFSET -19.846718 0.012763 0.000000
									CHANNELS 3 Yrotation Xrotation Zrotation
									End Site
									{
										OFFSET -14.973145 -0.000001 0.000000
									}
								}
							}
						}
					}
				}
			}
		}
	}
	JOINT RightHip
	{
		OFFSET 9.469263 0.004643 0.045487
		CHANNELS 3 Yrotation Xrotation Zrotation
		JOINT RightKnee
		{
			OFFSET 0.000000 0.002661 -40.478676
			CHANNELS 3 Yrotation Xrotation Zrotation
			JOINT RightAnkle
			{
				OFFSET 0.000000 0.049106 -35.224068
				CHANNELS 3 Yrotation Xrotation Zrotation
				JOINT RightToe
				{
					OFFSET -0.000001 12.539529 -6.151390
					CHANNELS 3 Yrotation Xrotation Zrotation
					End Site
					{
						OFFSET -0.000001 5.044994 -1.291870
					}
				}
			}
		}
	}
	JOINT LeftHip
	{
		OFFSET -9.469263 0.004641 0.045487
		CHANNELS 3 Yrotation Xrotation Zrotation
		JOINT LeftKnee
		{
			OFFSET 0.000000 0.002661 -40.478676
			CHANNELS 3 Yrotation Xrotation Zrotation
			JOINT LeftAnkle
			{
				OFFSET 0.000000 0.049106 -35.224068
				CHANNELS 3 Yrotation Xrotation Zrotation
				JOINT LeftToe
				{
					OFFSET -0.000001 12.539529 -6.151390
					CHANNELS 3 Yrotation Xrotation Zrotation
					End Site
					{
						OFFSET -0.000001 5.044994 -1.291870
					}
				}
			}
		}
	}
}
MOTION
Frames: 12
Frame Time: 0.016667
-10.824486 19.971308 83.588570 0.171619 -4.195143 -144.914976 -4.396852 -6.555089 10.182695 -2.050497 -3.072746 4.454231 -2.050498 -3.072746 4.454234 -1.515184 -2.319675 3.329605 -2.104031 -17.944874 3.100552 -2.835066 2.876707 5.004444 7.435232 5.039507 1.587288 65.342507 25.317162 58.676871 20.055430 -2.874737 74.224431 -53.649544 33.568727 22.279835 -6.758945 11.884036 4.090688 -49.002998 32.756365 18.743070 -2.205641 -5.543439 -4.619786 22.789594 17.932277 -36.885818 7.785243 0.130798 -6.036030 6.232610 -15.065126 -3.460138 21.466009 -20.179143 19.419437 -0.671879 -3.090501 -1.349267 -10.587558 20.850310 -4.717970 1.042673 -0.450782 23.662069 -2.812006 -30.214947 -9.972944 5.787982 6.857010 -0.742660 
-10.914745 19.769077 83.329346 0.446065 -4.507994 -145.785907 -4.289725 -6.603825 10.386367 -1.924084 -3.105490 4.519943 -1.924085 -3.105490 4.519943 -1.419814 -2.343521 3.379380 -2.313826 -17.741271 3.239310 -3.169971 3.258884 5.189217 7.463554 5.271463 1.800552 65.236434 23.660663 59.836528 19.232039 -3.372723 73.772122 -53.549004 33.524071 22.812694 -6.810499 12.135454 4.412444 -48.265074 33.114499 19.511151 -1.931480 -5.429175 -4.405296 22.791177 17.759130 -36.847699 8.035421 0.497607 -5.915635 6.770810 -16.618451 -4.278270 21.056235 -19.246297 20.186337 -0.853202 -2.783953 -1.286064 -10.485624 20.124326 -3.690296 0.916514 -0.575462 24.507170 -3.043157 -31.847396 -10.866276 5.698890 7.299677 -0.807156 
-10.959800 19.576588 83.057983 0.568325 -4.844623 -146.461632 -4.279780 -6.772185 10.504845 -1.803991 -3.150121 4.576596 -1.803993 -3.150121 4.576595 -1.329132 -2.376278 3.422312 -2.480864 -17.530034 3.341996 -3.438117 3.654461 5.321391 7.472577 5.147123 2.003791 65.440165 22.169911 61.285252 18.269540 -3.868419 73.417417 -53.145541 33.314231 23.391439 -6.828848 11.946835 4.511033 -47.862394 33.711184 19.916922 -1.630754 -5.274664 -4.128427 22.876783 17.782514 -36.747159 8.028363 0.804161 -6.202712 7.370116 -18.321460 -5.025986 20.916756 -18.252103 20.951880 -1.107542 -2.587664 -1.247024 -10.487917 19.293493 -2.531299 0.704357 -0.800922 25.227568 -2.712477 -33.422551 -12.022501 5.281102 7.713144 -0.904001 
-10.957493 19.329649 82.765121 0.697073 -5.182500 -147.010027 -4.215514 -6.993833 10.577423 -1.709776 -3.200815 4.639102 -1.709776 -3.200816 4.639108 -1.257763 -2.413772 3.469498 -2.608352 -17.315197 3.397348 -3.649523 4.055930 5.379185 7.456848 4.911248 2.176693 65.799290 20.801498 62.761925 17.313409 -4.421357 73.176359 -52.670843 33.154671 24.033127 -6.839885 11.679671 4.454958 -47.619024 34.257241 20.188009 -1.318213 -5.076014 -3.859393 22.917827 17.998488 -36.631326 7.948885 1.036017 -6.903439 7.925129 -20.062388 -5.179040 20.712825 -17.278210 21.864674 -1.228399 -2.383782 -1.153129 -10.511729 18.455154 -1.275923 0.433359 -1.070169 25.663961 -1.943659 -34.494409 -12.724467 4.481304 7.861364 -1.021316 
-10.998571 19.014971 82.441559 0.930850 -5.507259 -147.596659 -4.062287 -7.127001 10.733221 -1.643605 -3.239275 4.724436 -1.643606 -3.239277 4.724434 -1.207396 -2.442351 3.533697 -2.697111 -17.119135 3.418284 -3.801890 4.421698 5.386373 7.469235 4.671366 2.373582 66.041243 19.508911 64.011529 16.342961 -4.951426 73.038491 -52.462680 33.195402 24.647820 -6.787635 11.514092 4.385686 -47.364080 34.643252 20.496771 -1.028717 -4.808196 -3.672111 22.881472 18.086247 -36.611323 7.969886 1.281722 -7.406522 8.733479 -21.705387 -5.213048 20.278275 -16.345930 22.379765 -1.241300 -2.108048 -0.964060 -10.412367 17.698176 0.132148 0.108910 -1.333364 25.890956 -0.734013 -35.279792 -13.359287 3.444377 7.846135 -1.162600 
-11.111326 18.681120 82.087891 1.233593 -5.805673 -148.236046 -3.863175 -7.179311 10.951320 -1.573801 -3.274651 4.815017 -1.573804 -3.274653 4.815014 -1.154290 -2.468585 3.601867 -2.806873 -16.925957 3.442273 -3.992405 4.782497 5.391499 7.486780 4.584881 2.611504 66.020445 18.259674 64.960611 15.401954 -5.415670 72.891717 -52.457765 33.299020 25.299868 -6.787843 11.679338 4.462373 -46.891318 34.824669 20.998556 -0.814088 -4.518922 -3.598971 22.848651 17.910651 -36.718411 8.051513 1.676034 -7.312090 9.923847 -23.359629 -6.182517 19.667572 -15.573318 22.782163 -1.238142 -1.756487 -0.746938 -10.161884 17.020367 1.718303 -0.303082 -1.584112 26.099261 0.881151 -35.858982 -13.852284 2.288777 7.771966 -1.325524 
-11.253834 18.353027 81.720314 1.545934 -6.049737 -148.849315 -3.711917 -7.186841 11.177876 -1.504498 -3.305568 4.897691 -1.504501 -3.305567 4.897698 -1.101628 -2.491436 3.664130 -2.921494 -16.721635 3.483561 -4.185923 5.164030 5.426431 7.537197 4.582012 2.809008 65.927001 17.035516 65.790930 14.508449 -5.847344 72.704297 -52.297690 33.269288 25.944318 -6.800737 12.161816 4.738287 -46.268979 34.806258 21.597132 -0.656185 -4.325690 -3.618932 22.876609 17.761407 -36.829029 8.161974 2.062782 -7.186829 11.097085 -24.864557 -7.470317 19.267323 -14.876383 23.077131 -1.302334 -1.466020 -0.688884 -9.873499 16.356585 3.473194 -0.803331 -1.782704 26.211850 3.023716 -36.212437 -14.141446 0.952606 7.678506 -1.535136 
-11.391459 17.965286 81.357697 1.805151 -6.276217 -149.315134 -3.623635 -7.245346 11.329569 -1.450281 -3.331310 4.970336 -1.450279 -3.331307 4.970333 -1.060365 -2.510483 3.718813 -3.011548 -16.505639 3.531483 -4.331524 5.566754 5.481899 7.575295 4.444751 2.902710 66.023559 15.816519 66.743243 13.657724 -6.296892 72.519670 -51.944787 33.192100 26.503007 -6.848819 12.391676 4.828258 -45.732177 35.069227 21.992987 -0.512181 -4.193573 -3.650845 22.896809 17.937670 -36.838120 8.256693 2.276903 -7.466763 12.086909 -26.180733 -8.311796 18.766959 -14.272432 23.470236 -1.261596 -1.203565 -0.601333 -9.663591 15.697219 5.280554 -1.327105 -2.135525 26.160927 5.387489 -36.064102 -14.035784 5.107530 10.843411 -0.860629 
-11.505499 17.533514 81.005211 2.006550 -6.420648 -149.682366 -3.592628 -7.300942 11.433663 -1.412146 -3.340324 5.032846 -1.412148 -3.340324 5.032845 -1.031357 -2.517086 3.765860 -3.093595 -16.310903 3.587069 -4.460046 5.929916 5.554352 7.577251 4.113857 2.975785 66.266461 14.619018 67.736933 12.949585 -6.845833 72.382732 -51.757172 33.252718 26.897966 -6.945547 12.263274 4.725645 -45.351630 35.563497 22.137213 -0.395890 -4.018721 -3.657145 22.878186 18.348613 -36.717372 8.312090 2.399867 -8.014309 12.879712 -27.417327 -8.713954 18.372693 -13.505008 23.676905 -1.190296 -1.041128 -0.551566 -9.558082 15.269678 6.811096 -1.758885 -2.843272 26.282051 7.677072 -35.244124 -13.337345 7.473424 14.994809 -0.410545 
-11.659126 17.053909 80.638824 2.206716 -6.452352 -150.037454 -3.552602 -7.277712 11.541796 -1.399903 -3.320704 5.088250 -1.399903 -3.320703 5.088252 -1.022040 -2.502398 3.807535 -3.175763 -16.163938 3.652613 -4.586209 6.204471 5.645457 7.579812 3.794313 3.066643 66.504999 13.427083 68.504782 12.469772 -7.496344 72.253600 -51.817056 33.445900 27.221666 -7.021945 12.218277 4.699728 -44.965864 35.798186 22.282918 -0.350142 -3.722432 -3.648301 22.818427 18.707133 -36.562317 8.351173 2.683156 -8.364173 13.840717 -28.781977 -9.385397 17.849265 -12.596868 23.777541 -1.073850 -0.888310 -0.400717 -9.374189 15.184583 7.772501 -2.270902 -3.800587 26.718558 9.841763 -34.075629 -12.016385 8.395186 18.361772 -0.001955 
-11.861827 16.579437 80.246552 2.402676 -6.336277 -150.457197 -3.561571 -7.140196 11.705220 -1.416816 -3.277742 5.153296 -1.416818 -3.277745 5.153293 -1.034743 -2.470472 3.856331 -3.255684 -16.040756 3.722490 -4.707093 6.434871 5.745507 7.614126 3.621302 3.175584 66.665870 12.225587 68.966435 12.158957 -8.138699 72.112113 -51.839350 33.525734 27.573358 -7.088037 12.433279 4.738323 -44.407100 35.814817 22.612634 -0.334438 -3.370352 -3.685988 22.751353 18.781733 -36.512958 8.312768 3.146062 -8.357948 15.038378 -30.120103 -10.565946 17.292371 -11.927972 24.032193 -1.048775 -0.649792 -0.272006 -9.139241 15.402017 8.229493 -2.855990 -4.806801 27.414059 12.088882 -32.496978 -10.260238 7.962883 20.797766 0.195969 
-12.079972 16.126890 79.829010 2.559689 -6.118150 -150.888550 -3.668613 -6.955762 11.890924 -1.448936 -3.217926 5.227512 -1.448936 -3.217926 5.227511 -1.058959 -2.426062 3.911995 -3.334042 -15.919248 3.792312 -4.825071 6.662165 5.845952 7.698634 3.480680 3.254197 66.706045 11.023072 69.298717 11.916462 -8.668073 71.976971 -51.587948 33.336538 27.938127 -7.174071 12.753497 4.756886 -43.694281 35.884229 23.008845 -0.313530 -3.085441 -3.699026 22.708779 18.646886 -36.649057 8.130127 3.790498 -8.024029 16.491565 -31.517198 -12.179492 16.937891 -11.448527 24.279734 -1.163103 -0.361000 -0.168718 -9.025149 15.607940 8.682335 -3.295333 -5.515647 27.969037 14.627813 -29.378805 -9.506539 6.583093 20.904719 0.154963 
